<mxfile host="app.diagrams.net" modified="2022-11-06T15:00:31.150Z" agent="5.0 (Windows NT 10.0; Win64; x64) AppleWebKit/537.36 (KHTML, like Gecko) Chrome/107.0.0.0 Safari/537.36" etag="OQuutznDUat7N39HIo13" version="20.5.2" type="github">
  <diagram id="zOwNHJr7R-2RFhYsYNpd" name="Page-1">
    <mxGraphModel dx="1038" dy="571" grid="1" gridSize="10" guides="1" tooltips="1" connect="1" arrows="1" fold="1" page="1" pageScale="1" pageWidth="850" pageHeight="1100" math="0" shadow="0">
      <root>
        <mxCell id="0" />
        <mxCell id="1" parent="0" />
        <mxCell id="EqxgvoO0hf8KcEwvMwu5-1" value="" style="rounded=0;whiteSpace=wrap;html=1;direction=south;" vertex="1" parent="1">
          <mxGeometry x="40" y="40" width="20" height="240" as="geometry" />
        </mxCell>
        <mxCell id="EqxgvoO0hf8KcEwvMwu5-2" value="FOREST A" style="rounded=0;whiteSpace=wrap;html=1;" vertex="1" parent="1">
          <mxGeometry x="340" y="110" width="110" height="30" as="geometry" />
        </mxCell>
        <mxCell id="EqxgvoO0hf8KcEwvMwu5-3" value="" style="rounded=0;whiteSpace=wrap;html=1;direction=south;" vertex="1" parent="1">
          <mxGeometry x="240" y="95" width="20" height="120" as="geometry" />
        </mxCell>
        <mxCell id="EqxgvoO0hf8KcEwvMwu5-4" value="" style="rounded=0;whiteSpace=wrap;html=1;direction=south;" vertex="1" parent="1">
          <mxGeometry x="200" y="95" width="20" height="120" as="geometry" />
        </mxCell>
        <mxCell id="EqxgvoO0hf8KcEwvMwu5-5" value="" style="rounded=0;whiteSpace=wrap;html=1;direction=south;" vertex="1" parent="1">
          <mxGeometry x="160" y="95" width="20" height="120" as="geometry" />
        </mxCell>
        <mxCell id="EqxgvoO0hf8KcEwvMwu5-6" value="FOREST B" style="rounded=0;whiteSpace=wrap;html=1;" vertex="1" parent="1">
          <mxGeometry x="340" y="170" width="110" height="30" as="geometry" />
        </mxCell>
        <mxCell id="EqxgvoO0hf8KcEwvMwu5-8" value="" style="endArrow=none;html=1;rounded=0;entryX=0.5;entryY=1;entryDx=0;entryDy=0;exitX=0.5;exitY=0;exitDx=0;exitDy=0;" edge="1" parent="1" source="EqxgvoO0hf8KcEwvMwu5-1" target="EqxgvoO0hf8KcEwvMwu5-1">
          <mxGeometry width="50" height="50" relative="1" as="geometry">
            <mxPoint x="60" y="155" as="sourcePoint" />
            <mxPoint x="260" y="250" as="targetPoint" />
          </mxGeometry>
        </mxCell>
        <mxCell id="EqxgvoO0hf8KcEwvMwu5-13" value="" style="rounded=0;whiteSpace=wrap;html=1;" vertex="1" parent="1">
          <mxGeometry x="40" y="80" width="20" height="40" as="geometry" />
        </mxCell>
        <mxCell id="EqxgvoO0hf8KcEwvMwu5-14" value="" style="rounded=0;whiteSpace=wrap;html=1;" vertex="1" parent="1">
          <mxGeometry x="40" y="200" width="20" height="40" as="geometry" />
        </mxCell>
        <mxCell id="EqxgvoO0hf8KcEwvMwu5-15" value="" style="rounded=0;whiteSpace=wrap;html=1;direction=south;" vertex="1" parent="1">
          <mxGeometry x="600" y="40" width="60" height="240" as="geometry" />
        </mxCell>
        <mxCell id="EqxgvoO0hf8KcEwvMwu5-16" value="" style="rounded=0;whiteSpace=wrap;html=1;" vertex="1" parent="1">
          <mxGeometry x="520" y="160" width="10" height="60" as="geometry" />
        </mxCell>
        <mxCell id="EqxgvoO0hf8KcEwvMwu5-17" value="" style="rounded=0;whiteSpace=wrap;html=1;" vertex="1" parent="1">
          <mxGeometry x="500" y="160" width="10" height="60" as="geometry" />
        </mxCell>
        <mxCell id="EqxgvoO0hf8KcEwvMwu5-18" value="" style="rounded=0;whiteSpace=wrap;html=1;" vertex="1" parent="1">
          <mxGeometry x="480" y="160" width="10" height="60" as="geometry" />
        </mxCell>
        <mxCell id="EqxgvoO0hf8KcEwvMwu5-19" value="" style="rounded=0;whiteSpace=wrap;html=1;" vertex="1" parent="1">
          <mxGeometry x="560" y="90" width="10" height="60" as="geometry" />
        </mxCell>
        <mxCell id="EqxgvoO0hf8KcEwvMwu5-20" value="" style="rounded=0;whiteSpace=wrap;html=1;" vertex="1" parent="1">
          <mxGeometry x="520" y="90" width="10" height="60" as="geometry" />
        </mxCell>
        <mxCell id="EqxgvoO0hf8KcEwvMwu5-21" value="" style="rounded=0;whiteSpace=wrap;html=1;" vertex="1" parent="1">
          <mxGeometry x="560" y="160" width="10" height="60" as="geometry" />
        </mxCell>
        <mxCell id="EqxgvoO0hf8KcEwvMwu5-22" value="" style="rounded=0;whiteSpace=wrap;html=1;" vertex="1" parent="1">
          <mxGeometry x="500" y="90" width="10" height="60" as="geometry" />
        </mxCell>
        <mxCell id="EqxgvoO0hf8KcEwvMwu5-23" value="" style="rounded=0;whiteSpace=wrap;html=1;" vertex="1" parent="1">
          <mxGeometry x="480" y="90" width="10" height="60" as="geometry" />
        </mxCell>
      </root>
    </mxGraphModel>
  </diagram>
</mxfile>
